<?xml version="1.0" encoding="UTF-8" standalone="no"?>
<!-- Generator: Adobe Illustrator 19.0.0, SVG Export Plug-In . SVG Version: 6.00 Build 0)  -->

<svg
   xmlns:dc="http://purl.org/dc/elements/1.1/"
   xmlns:cc="http://creativecommons.org/ns#"
   xmlns:rdf="http://www.w3.org/1999/02/22-rdf-syntax-ns#"
   xmlns:svg="http://www.w3.org/2000/svg"
   xmlns="http://www.w3.org/2000/svg"
   xmlns:sodipodi="http://sodipodi.sourceforge.net/DTD/sodipodi-0.dtd"
   xmlns:inkscape="http://www.inkscape.org/namespaces/inkscape"
   version="1.1"
   id="Capa_1"
   x="0px"
   y="0px"
   viewBox="0 0 47 47"
   style="enable-background:new 0 0 47 47;"
   xml:space="preserve"
   sodipodi:docname="008-saveas.svg"
   inkscape:version="0.92.3 (2405546, 2018-03-11)"><metadata
   id="metadata57"><rdf:RDF><cc:Work
       rdf:about=""><dc:format>image/svg+xml</dc:format><dc:type
         rdf:resource="http://purl.org/dc/dcmitype/StillImage" /></cc:Work></rdf:RDF></metadata><defs
   id="defs55" /><sodipodi:namedview
   pagecolor="#ffffff"
   bordercolor="#666666"
   borderopacity="1"
   objecttolerance="10"
   gridtolerance="10"
   guidetolerance="10"
   inkscape:pageopacity="0"
   inkscape:pageshadow="2"
   inkscape:window-width="1600"
   inkscape:window-height="1172"
   id="namedview53"
   showgrid="false"
   inkscape:zoom="14.202315"
   inkscape:cx="11.125336"
   inkscape:cy="15.775889"
   inkscape:window-x="1366"
   inkscape:window-y="0"
   inkscape:window-maximized="1"
   inkscape:current-layer="Capa_1" />
<polygon
   style="fill:#424A60;"
   points="46.5,8 46.5,47 0.5,47 0.5,0 38.5,0 "
   id="polygon2" />
<rect
   x="7.5"
   y="26"
   style="fill:#E7ECED;"
   width="31"
   height="21"
   id="rect4" />
<rect
   x="7.5"
   y="26"
   style="fill:#EBBA16;"
   width="31"
   height="12.037"
   id="rect6" />
<rect
   x="9.5"
   style="fill:#C7CAC7;"
   width="26"
   height="16"
   id="rect8" />
<g
   id="g16">
	<path
   style="fill:#FFFFFF;"
   d="M12.5,31h7c0.553,0,1-0.447,1-1s-0.447-1-1-1h-7c-0.553,0-1,0.447-1,1S11.947,31,12.5,31z"
   id="path10" />
	<path
   style="fill:#FFFFFF;"
   d="M22.5,33h-10c-0.553,0-1,0.447-1,1s0.447,1,1,1h10c0.553,0,1-0.447,1-1S23.053,33,22.5,33z"
   id="path12" />
	<path
   style="fill:#FFFFFF;"
   d="M26.21,33.29c-0.37-0.37-1.04-0.37-1.41,0c-0.19,0.189-0.3,0.439-0.3,0.71   c0,0.27,0.109,0.52,0.29,0.71C24.979,34.89,25.229,35,25.5,35c0.27,0,0.52-0.11,0.71-0.29c0.18-0.19,0.29-0.45,0.29-0.71   S26.39,33.479,26.21,33.29z"
   id="path14" />
</g>
<rect
   x="27.5"
   y="4"
   style="fill:none;stroke:#424A60;stroke-width:2;stroke-linecap:round;stroke-miterlimit:10;"
   width="4"
   height="8"
   id="rect18" />
<polygon
   style="fill:#E7ECED;"
   points="24.5,16 9.5,16 9.5,0 16.5,0 "
   id="polygon20" />
<g
   id="g22">
</g>
<g
   id="g24">
</g>
<g
   id="g26">
</g>
<g
   id="g28">
</g>
<g
   id="g30">
</g>
<g
   id="g32">
</g>
<g
   id="g34">
</g>
<g
   id="g36">
</g>
<g
   id="g38">
</g>
<g
   id="g40">
</g>
<g
   id="g42">
</g>
<g
   id="g44">
</g>
<g
   id="g46">
</g>
<g
   id="g48">
</g>
<g
   id="g50">
</g>
<path
   inkscape:connector-curvature="0"
   style="fill:#d75a4a;stroke-width:0.4711403"
   d="m 38.435014,19.93834 c 1.471843,-1.471842 3.85864,-1.471842 5.330482,0 1.471842,1.471843 1.471842,3.858639 0,5.330482 z"
   id="path2" /><polygon
   style="fill:#0000ff"
   points="42.426,17.899 16.512,43.814 15.982,48.587 44.548,20.02 "
   id="polygon4"
   transform="matrix(0.47114031,0,0,0.47114031,19.7788,18.834459)" /><polygon
   style="fill:#0000ff"
   points="36.77,12.243 10.855,38.157 10.325,42.93 15.098,42.4 41.012,16.485 "
   id="polygon6"
   transform="matrix(0.47114031,0,0,0.47114031,19.7788,18.834459)" /><polygon
   style="fill:#0000ff"
   points="35.356,10.829 33.234,8.707 4.668,37.273 9.441,36.743 "
   id="polygon8"
   transform="matrix(0.47114031,0,0,0.47114031,19.7788,18.834459)" /><polygon
   style="fill:#c7cac7"
   points="39.598,2.343 37.476,4.465 37.477,4.465 48.79,15.778 50.912,13.657 "
   id="polygon10"
   transform="matrix(0.47114031,0,0,0.47114031,19.7788,18.834459)" /><polygon
   style="fill:#c7cac7"
   points="34.648,7.293 45.962,18.606 47.376,17.192 36.062,5.879 "
   id="polygon12"
   transform="matrix(0.47114031,0,0,0.47114031,19.7788,18.834459)" /><path
   inkscape:connector-curvature="0"
   style="fill:#fbce9d;stroke-width:0.4711403"
   d="m 26.574528,39.794549 -2.41318,0.268078 c -0.01696,0.0019 -0.03439,0.0028 -0.05136,0.0028 0,0 -4.71e-4,0 -4.71e-4,0 v 0 0 c -4.71e-4,0 -4.71e-4,0 -4.71e-4,0 -0.01696,0 -0.03439,-9.42e-4 -0.05135,-0.0028 -0.01838,-0.0019 -0.03345,-0.01225 -0.05088,-0.01649 -0.03392,-0.008 -0.06643,-0.01649 -0.09753,-0.03157 -0.02356,-0.01131 -0.04382,-0.02497 -0.06502,-0.03958 -0.02686,-0.01884 -0.05135,-0.0391 -0.07397,-0.06313 -0.0179,-0.01885 -0.03251,-0.03816 -0.04711,-0.05983 -0.0179,-0.02685 -0.03251,-0.05465 -0.04476,-0.08528 -0.01037,-0.02544 -0.0179,-0.05041 -0.02356,-0.07774 -0.0033,-0.01508 -0.01131,-0.0278 -0.01319,-0.04335 -0.0019,-0.0179 0.0047,-0.03439 0.0047,-0.05183 0,-0.0179 -0.0066,-0.03392 -0.0047,-0.05183 l 0.268079,-2.41318 -2.413181,0.268079 c -0.01743,0.0019 -0.03534,0.0028 -0.0523,0.0028 -0.03722,0 -0.07161,-0.01131 -0.106948,-0.01979 l -1.350289,5.670644 0.992222,-0.992221 c 0.184216,-0.184216 0.481976,-0.184216 0.666192,0 0.184216,0.184216 0.184216,0.481976 0,0.666192 l -0.992221,0.992222 5.667818,-1.349346 c -0.01225,-0.05135 -0.02026,-0.104593 -0.01413,-0.159717 z"
   id="path14-9" /><path
   inkscape:connector-curvature="0"
   style="fill:#38454f;stroke-width:0.4711403"
   d="m 21.645458,42.058378 c -0.184216,-0.184216 -0.481976,-0.184216 -0.666192,0 l -0.992222,0.992221 -0.208244,0.874437 0.874437,-0.208244 0.992221,-0.992222 c 0.183745,-0.184216 0.183745,-0.481976 0,-0.666192 z"
   id="path16" /><polygon
   style="fill:#f2ecbf"
   points="37.477,4.465 37.476,4.465 36.062,5.879 47.376,17.192 48.79,15.778 "
   id="polygon18"
   transform="matrix(0.47114031,0,0,0.47114031,19.7788,18.834459)" /><path
   inkscape:connector-curvature="0"
   style="fill:#000080;stroke-width:0.4711403"
   d="m 39.101207,26.601207 -12.20913,12.209601 -2.248753,0.249704 0.249705,-2.248753 12.209601,-12.20913 -0.666193,-0.666192 -12.209601,12.20913 -2.248753,0.249704 -0.533802,0.533802 -0.10742,0.450882 c 0.03534,0.0085 0.06926,0.01979 0.106949,0.01979 0.01696,0 0.03486,-9.42e-4 0.0523,-0.0028 l 2.413181,-0.268079 -0.268079,2.41318 c -0.0019,0.0179 0.0047,0.03439 0.0047,0.05183 0,0.0179 -0.0066,0.03392 -0.0047,0.05183 0.0019,0.01555 0.0099,0.02827 0.01319,0.04335 0.0057,0.02685 0.01366,0.05277 0.02356,0.07774 0.01225,0.03015 0.02686,0.05842 0.04476,0.08528 0.01413,0.0212 0.02968,0.04146 0.04711,0.05983 0.02214,0.02356 0.04711,0.04429 0.07397,0.06313 0.02073,0.01461 0.04193,0.02874 0.06502,0.03958 0.03062,0.01461 0.0636,0.02356 0.09753,0.03157 0.0179,0.0042 0.03251,0.01413 0.05088,0.01649 0.01696,0.0019 0.03392,0.0028 0.05135,0.0028 h 4.71e-4 v 0 h 4.71e-4 4.71e-4 c 0,0 4.72e-4,0 4.72e-4,0 v 0 c 0.01649,0 0.03392,-9.42e-4 0.05135,-0.0028 l 2.41318,-0.268078 -0.268078,2.41318 c -0.0061,0.05559 0.0019,0.108363 0.01413,0.159717 l 0.453708,-0.107891 0.533802,-0.533331 0.249704,-2.248753 12.20913,-12.209601 z"
   id="path20" /><polygon
   style="fill:#f2ecbf"
   points="33.234,8.707 35.356,10.829 36.77,12.243 41.012,16.485 42.426,17.899 44.548,20.02 45.962,18.606 34.648,7.293 "
   id="polygon22"
   transform="matrix(0.47114031,0,0,0.47114031,19.7788,18.834459)" /><text
   xml:space="preserve"
   style="font-style:normal;font-variant:normal;font-weight:normal;font-stretch:normal;font-size:17.33333397px;line-height:100%;font-family:Karumbi;-inkscape-font-specification:'Karumbi, Normal';font-variant-ligatures:normal;font-variant-caps:normal;font-variant-numeric:normal;font-feature-settings:normal;text-align:start;letter-spacing:0px;word-spacing:0px;writing-mode:lr-tb;text-anchor:start;fill:#000000;fill-opacity:1;stroke:none;stroke-width:1px;stroke-linecap:butt;stroke-linejoin:miter;stroke-opacity:1"
   x="8.9422035"
   y="44.606026"
   id="text4610"><tspan
     sodipodi:role="line"
     id="tspan4608"
     x="8.9422035"
     y="44.606026">le</tspan></text>
</svg>